<svg width="22" height="24" viewBox="0 0 22 24" fill="currentColor" xmlns="http://www.w3.org/2000/svg">
    <path d="M16.6659 19.4413L19.2596 21.062C17.9055 19.5068 19.0585 17.2873 19.1099 17.1938C20.3986 15.4725 21.0651 13.4869 21.0651 11.396C21.0651 6.13155 16.7805 1.84932 11.516 1.84932C6.25154 1.84932 1.96932 6.13155 1.96932 11.396C1.96932 16.6605 6.25154 20.9428 11.516 20.9428C13.2607 20.9428 14.968 20.468 16.4531 19.5699L16.6659 19.4413ZM19.4748 22.1449L16.6566 20.3838C15.0966 21.2772 13.3262 21.7473 11.516 21.7473C5.80718 21.7473 1.16479 17.1049 1.16479 11.396C1.16479 5.68953 5.80718 1.0448 11.516 1.0448C17.2249 1.0448 21.8696 5.68953 21.8696 11.396C21.8696 13.6623 21.1493 15.8162 19.7858 17.6241C19.7928 17.6241 18.8784 19.4249 19.9004 20.5756C19.9893 20.6902 20.3237 21.1603 20.1787 21.6046C20.1366 21.7379 20.0103 21.9812 19.6502 22.0911L19.4748 22.1449Z"
          fill="currentColor"/>
    <path d="M8.36462 12.2428C8.36462 12.9233 7.81268 13.4753 7.12743 13.4753C6.44686 13.4753 5.89492 12.9233 5.89492 12.2428C5.89492 11.5599 6.44686 11.0056 7.12743 11.0056C7.81268 11.0056 8.36462 11.5599 8.36462 12.2428Z"
          fill="currentColor"/>
    <path d="M12.7533 12.2428C12.7533 12.9233 12.2014 13.4753 11.5161 13.4753C10.8355 13.4753 10.2836 12.9233 10.2836 12.2428C10.2836 11.5599 10.8355 11.0056 11.5161 11.0056C12.2014 11.0056 12.7533 11.5599 12.7533 12.2428Z"
          fill="currentColor"/>
    <path d="M16.9835 12.2428C16.9835 12.9233 16.4316 13.4753 15.7463 13.4753C15.0658 13.4753 14.5138 12.9233 14.5138 12.2428C14.5138 11.5599 15.0658 11.0056 15.7463 11.0056C16.4316 11.0056 16.9835 11.5599 16.9835 12.2428Z"
          fill="currentColor"/>
</svg>
