<svg width="22" height="26" viewBox="0 0 22 26" fill="currentColor" xmlns="http://www.w3.org/2000/svg">
    <g clip-path="url(#clip0_1155_969)">
        <path d="M1.96948 12.1391C0.755082 14.2436 0.755082 16.7552 1.96948 18.8597C3.18388 20.9619 5.35967 22.2177 7.78847 22.2177C10.2173 22.2177 12.3931 20.9619 13.6075 18.8597C14.8219 16.7552 14.8219 14.2436 13.6075 12.1391L7.78847 2.0605M7.78847 22.9767C5.08597 22.9767 2.66638 21.5783 1.31398 19.2369C-0.0384168 16.8955 -0.0384168 14.101 1.31398 11.7596L7.78847 0.5448L14.263 11.7596C15.6154 14.101 15.6154 16.8955 14.263 19.2369C12.9129 21.5783 10.491 22.9767 7.78847 22.9767Z"
              fill="currentColor"/>
        <path d="M7.8231 20.9787C5.81521 20.9787 4.01431 19.9391 3.01151 18.2003C2.00642 16.4615 2.00642 14.3846 3.01151 12.6435C3.11501 12.4641 3.34731 12.402 3.52901 12.5055C3.70841 12.609 3.77051 12.8413 3.66701 13.023C2.79991 14.5249 2.79991 16.3189 3.66701 17.8208C4.53411 19.325 6.08891 20.222 7.8231 20.222C8.0324 20.222 8.2026 20.3922 8.2026 20.5992C8.2026 20.8085 8.0324 20.9787 7.8231 20.9787Z"
              fill="currentColor"/>
        <path d="M17.0405 15.7231C17.0405 17.6896 15.557 19.2834 15.557 19.2834C15.557 19.2834 14.0735 17.6896 14.0735 15.7231C14.0735 13.7566 15.557 12.1627 15.557 12.1627C15.557 12.1627 17.0405 13.7566 17.0405 15.7231Z"
              fill="#FDFCF9"/>
        <path d="M19.3531 19.6184C17.6993 20.6823 15.555 20.2951 15.555 20.2951C15.555 20.2951 16.0941 18.1871 17.7479 17.1231C19.4017 16.0592 21.546 16.4464 21.546 16.4464C21.546 16.4464 21.0063 18.5576 19.3531 19.6184Z"
              fill="#FDFCF9"/>
        <path d="M11.7552 19.6561C10.0914 18.6078 9.53359 16.503 9.53359 16.503C9.53359 16.503 11.6729 16.0975 13.3368 17.1458C15.0006 18.194 15.5564 20.2976 15.5564 20.2976C15.5564 20.2976 13.4178 20.7063 11.7552 19.6561Z"
              fill="#FDFCF9"/>
        <path d="M19.1475 19.3015C18.0711 19.9938 16.7417 20.0168 16.0632 19.9708C16.3024 19.336 16.8751 18.1331 17.9515 17.4408C19.0302 16.7508 20.3619 16.7278 21.0381 16.7738C20.7966 17.4063 20.2239 18.6092 19.1475 19.3015ZM11.9554 19.336C10.8721 18.6529 10.2879 17.4569 10.0418 16.8244C10.7157 16.7738 12.0451 16.7807 13.133 17.4661C14.2163 18.1492 14.8005 19.3475 15.0466 19.9777C14.3704 20.0306 13.041 20.0214 11.9554 19.336ZM15.5549 12.7649C15.9597 13.3123 16.6612 14.4439 16.6612 15.7227C16.6612 17.0038 15.9597 18.1354 15.5549 18.6805C15.1524 18.1354 14.4509 17.0038 14.4509 15.7227C14.4509 14.4439 15.1524 13.3123 15.5549 12.7649ZM21.6108 16.0746C21.5188 16.0562 19.3016 15.6744 17.5421 16.806C17.4225 16.8819 17.3213 16.9739 17.2109 17.0613C17.3328 16.645 17.4179 16.1965 17.4179 15.7227C17.4179 13.632 15.8976 11.976 15.8332 11.9047L15.5549 11.608L15.2789 11.9047C15.2145 11.976 13.6942 13.632 13.6942 15.7227C13.6942 16.2149 13.7816 16.6795 13.9104 17.1096C13.7885 17.013 13.6735 16.9118 13.5378 16.8267C11.7691 15.7112 9.55421 16.1137 9.46221 16.1321L9.06201 16.208L9.16551 16.6013C9.19081 16.6933 9.78191 18.8622 11.5506 19.9777C12.5649 20.6171 13.7264 20.7551 14.5475 20.7551C14.7982 20.7551 15.0029 20.7413 15.1777 20.7275V25.0906C15.1777 25.2976 15.3479 25.4678 15.5549 25.4678C15.7642 25.4678 15.9344 25.2976 15.9344 25.0906V20.7206C16.0931 20.7344 16.2794 20.7459 16.5025 20.7459C17.3282 20.7459 18.5219 20.6033 19.5569 19.9386C21.3164 18.807 21.8868 16.6335 21.9121 16.5415L22.011 16.1482L21.6108 16.0746Z"
              fill="currentColor"/>
    </g>
    <defs>
        <clipPath id="clip0_1155_969">
            <rect width="22" height="25" fill="white" transform="translate(0 0.5)"/>
        </clipPath>
    </defs>
</svg>
