<svg width="22" height="26" viewBox="0 0 22 26" fill="currentColor"
     xmlns="http://www.w3.org/2000/svg">
    <path d="M10.1558 1.69195C10.5373 1.23942 11.2397 1.23942 11.6212 1.69195C12.4158 2.63384 13.5787 4.33872 13.5787 6.28828C13.5787 8.23784 12.4158 9.94534 11.6212 10.8846C11.2397 11.3371 10.5373 11.3371 10.1558 10.8846C9.35858 9.94534 8.19832 8.23784 8.19832 6.28828C8.19832 4.33872 9.35858 2.63384 10.1558 1.69195ZM9.88741 11.1135C10.1347 11.4082 10.5004 11.5766 10.8872 11.5766H10.8898C11.2766 11.5766 11.6396 11.4082 11.8896 11.1135C11.9448 11.0477 12.008 10.9662 12.0685 10.8925C12.3421 10.1742 12.8131 9.18236 13.5576 8.28783C13.7786 7.66954 13.9312 6.99601 13.9312 6.28828C13.9312 4.18875 12.6526 2.36548 11.8896 1.46568C11.6396 1.17101 11.2766 1 10.8872 1C10.5004 1 10.1347 1.16838 9.88741 1.46568C9.12442 2.36548 7.84576 4.18875 7.84576 6.28828C7.84576 7.01443 7.99573 7.70375 8.22726 8.34044C8.98235 9.22445 9.46908 10.219 9.75586 10.9504C9.79795 11.003 9.84268 11.0635 9.88741 11.1135Z"
          fill="currentColor"/>
    <path d="M10.4272 1.91905C10.543 1.78224 10.7114 1.70595 10.8903 1.70595C11.0692 1.70595 11.2376 1.78224 11.3533 1.91905C12.0532 2.74518 13.2266 4.41323 13.2266 6.28912C13.2266 8.16238 12.0532 9.83042 11.3533 10.6592C11.2402 10.7934 11.0692 10.8723 10.8903 10.8723C10.7114 10.8723 10.543 10.7934 10.4272 10.6592C9.72739 9.83042 8.55397 8.16238 8.55397 6.28912C8.55397 4.41323 9.72739 2.74518 10.4272 1.91905ZM11.6243 10.8854C12.4189 9.94355 13.5791 8.23868 13.5791 6.28912C13.5791 4.33956 12.4189 2.63205 11.6243 1.69279C11.2402 1.24026 10.5404 1.24026 10.1589 1.69279C9.36168 2.63205 8.20142 4.33956 8.20142 6.28912C8.20142 8.23868 9.36168 9.94355 10.1589 10.8854C10.5404 11.338 11.2402 11.338 11.6243 10.8854Z"
          fill="currentColor"/>
    <path d="M0.83244 8.00643C0.632486 7.44866 0.982407 6.84353 1.56385 6.73829C2.77937 6.51992 4.8368 6.36732 6.52589 7.34079C8.21235 8.31688 9.10952 10.1744 9.52784 11.3346C9.7278 11.8924 9.37788 12.4975 8.7938 12.6028C7.58091 12.8211 5.52349 12.9737 3.83439 12.0003C2.14793 11.0242 1.25077 9.16669 0.83244 8.00643ZM8.63857 12.9816C8.70961 12.9711 8.78854 12.9632 8.85694 12.95C9.23843 12.8816 9.56468 12.6501 9.75937 12.3133C9.95406 11.9792 9.98827 11.5793 9.85935 11.2162C9.83041 11.1347 9.79094 11.04 9.75674 10.9505C9.19897 10.2664 8.60437 9.37454 8.22814 8.34056C7.80718 7.84594 7.30466 7.38552 6.69953 7.03559C4.97361 6.03845 2.92144 6.1358 1.50334 6.391C1.12185 6.45941 0.792976 6.69094 0.600914 7.0277C0.406221 7.36184 0.369387 7.76175 0.500936 8.12482C0.900846 9.2351 1.84011 11.2557 3.65812 12.3055C4.28692 12.6685 4.95782 12.8737 5.62609 12.9921C6.69953 12.7896 7.76245 12.8448 8.63857 12.9816Z"
          fill="currentColor"/>
    <path d="M8.2298 8.34131C8.60603 9.37529 9.20063 10.2672 9.7584 10.9512C9.47162 10.2172 8.98489 9.22532 8.2298 8.34131Z"
          fill="currentColor"/>
    <path d="M1.16418 7.88764C1.10367 7.71925 1.12209 7.53508 1.21154 7.37986C1.30099 7.22463 1.45359 7.11676 1.62723 7.08519C2.06135 7.00626 2.65858 6.92996 3.31896 6.92996C4.2819 6.92996 5.38691 7.09045 6.34722 7.64558C7.97053 8.58485 8.82823 10.4344 9.19657 11.4526C9.25445 11.621 9.23867 11.8052 9.14921 11.963C9.05976 12.1183 8.90716 12.2261 8.73089 12.2577C7.66534 12.4498 5.63422 12.6313 4.01091 11.6947C2.38759 10.758 1.52989 8.90846 1.16418 7.88764ZM8.79403 12.6024C9.37811 12.4997 9.72803 11.892 9.52808 11.3342C9.10975 10.174 8.21258 8.31649 6.52349 7.34039C4.83703 6.36693 2.77961 6.51952 1.56409 6.7379C0.982644 6.84313 0.632723 7.45089 0.832678 8.00603C1.251 9.16629 2.14817 11.0264 3.83463 11.9999C5.52372 12.9733 7.58115 12.8234 8.79403 12.6024Z"
          fill="currentColor"/>
    <path d="M9.59995 14.6424C9.18162 15.8027 8.28445 17.6601 6.59799 18.6362C4.9089 19.6097 2.85147 19.4571 1.63859 19.2387C1.05451 19.1335 0.704587 18.5284 0.904542 17.9706C1.32287 16.8103 2.22003 14.9528 3.9065 13.9768C5.59559 13.0033 7.65302 13.1559 8.86853 13.3743C9.44998 13.4795 9.7999 14.0846 9.59995 14.6424ZM9.93145 14.7608C10.063 14.3977 10.0262 13.9978 9.83147 13.6637C9.63941 13.3269 9.31054 13.0954 8.92904 13.027C8.83696 13.0085 8.73698 12.9954 8.637 12.9822C8.14764 13.0612 7.60303 13.1217 7.01895 13.1217C6.56642 13.1217 6.09547 13.077 5.62453 12.9928C4.97994 13.1138 4.33535 13.3216 3.73285 13.6716C1.91484 14.7213 0.972948 16.7419 0.573038 17.8522C0.44412 18.2153 0.478323 18.6152 0.673016 18.9493C0.867709 19.2861 1.19658 19.5176 1.57544 19.586C2.11479 19.6834 2.7436 19.757 3.41187 19.757C4.50373 19.757 5.70346 19.5597 6.77427 18.9414C7.40307 18.5783 7.92138 18.0942 8.35286 17.5786C8.71593 16.5446 9.30001 15.6501 9.85515 14.9581C9.88146 14.8923 9.9104 14.8213 9.93145 14.7608Z"
          fill="currentColor"/>
    <path d="M8.63711 12.9812C7.76099 12.847 6.69807 12.7891 5.62463 12.9917C6.09558 13.0759 6.56653 13.1206 7.01905 13.1206C7.60313 13.1206 8.14775 13.0601 8.63711 12.9812Z"
          fill="currentColor"/>
    <path d="M9.26858 14.5234C8.90287 15.5442 8.04517 17.3938 6.42185 18.3304C4.79854 19.267 2.76742 19.0855 1.70187 18.8934C1.52559 18.8619 1.373 18.754 1.28354 18.5988C1.19409 18.4409 1.1783 18.2567 1.23618 18.0884C1.60452 17.0702 2.45959 15.2206 4.08291 14.284C5.04585 13.7288 6.15086 13.5657 7.1138 13.5657C7.77418 13.5657 8.37141 13.642 8.80552 13.7209C8.97917 13.7525 9.13177 13.8604 9.22122 14.0156C9.31067 14.1708 9.32909 14.355 9.26858 14.5234ZM8.86867 13.3736C7.65315 13.1553 5.59572 13.0027 3.90926 13.9761C2.22017 14.9522 1.32301 16.8097 0.904681 17.97C0.704726 18.5277 1.05465 19.1355 1.63872 19.2381C2.85161 19.4591 4.90904 19.6091 6.59813 18.6356C8.28459 17.6621 9.18175 15.802 9.60008 14.6418C9.80003 14.0866 9.45011 13.4789 8.86867 13.3736Z"
          fill="currentColor"/>
    <path d="M11.7691 24.1576C11.3876 24.6102 10.6851 24.6102 10.3037 24.1576C9.5091 23.2157 8.3462 21.5082 8.3462 19.5613C8.3462 17.6117 9.5091 15.9042 10.3037 14.965C10.6851 14.5124 11.3876 14.5124 11.7691 14.965C12.5663 15.9042 13.7266 17.6117 13.7266 19.5613C13.7266 21.5082 12.5663 23.2157 11.7691 24.1576ZM12.0375 14.7361C11.5402 14.1467 10.5326 14.1467 10.0353 14.7361C9.97741 14.8045 9.9169 14.8834 9.85639 14.9597C9.58014 15.6806 9.10393 16.6804 8.3541 17.5775C8.13573 18.1958 7.99365 18.8615 7.99365 19.5613C7.99365 21.6582 9.27231 23.4841 10.0353 24.3839C10.2852 24.6812 10.6483 24.8496 11.0377 24.8496C11.4245 24.8496 11.7902 24.6812 12.0375 24.3839C12.8005 23.4841 14.0791 21.6582 14.0791 19.5613C14.0791 18.8351 13.9292 18.1458 13.6976 17.5091C12.9425 16.6251 12.4558 15.6332 12.1717 14.8992C12.1269 14.8466 12.0822 14.7861 12.0375 14.7361Z"
          fill="currentColor"/>
    <path d="M8.35303 17.5779C9.10286 16.6807 9.57907 15.6809 9.85532 14.9574C9.30018 15.6493 8.7161 16.5439 8.35303 17.5779Z"
          fill="currentColor"/>
    <path d="M11.5007 23.9299C11.2692 24.2009 10.8035 24.2009 10.5746 23.9299C9.87479 23.1037 8.70137 21.4357 8.70137 19.5598C8.70137 17.6865 9.87479 16.0185 10.5746 15.1924C10.6904 15.0556 10.8588 14.9766 11.0377 14.9766C11.2166 14.9766 11.385 15.0556 11.5007 15.1897C12.2006 16.0185 13.374 17.6865 13.374 19.5598C13.374 21.4357 12.2006 23.1037 11.5007 23.9299ZM10.3063 14.9635C9.50908 15.9054 8.34882 17.6103 8.34882 19.5598C8.34882 21.5094 9.50908 23.2169 10.3063 24.1561C10.6878 24.6087 11.3876 24.6087 11.7691 24.1561C12.5663 23.2169 13.7265 21.5094 13.7265 19.5598C13.7265 17.6103 12.5663 15.9054 11.7691 14.9635C11.3876 14.511 10.6878 14.511 10.3063 14.9635Z"
          fill="currentColor"/>
    <path d="M20.3628 19.1116C19.1499 19.33 17.0898 19.4826 15.4033 18.5091C13.7143 17.5331 12.8171 15.6756 12.4014 14.5153C12.2014 13.9575 12.5514 13.3498 13.1328 13.2472C14.3457 13.0262 16.4057 12.8762 18.0922 13.8497C19.7813 14.8231 20.6785 16.6832 21.0942 17.8435C21.2941 18.3986 20.9442 19.0064 20.3628 19.1116ZM21.4257 17.7225C21.0284 16.6122 20.0865 14.5942 18.2685 13.5445C17.6371 13.1788 16.9556 12.9709 16.2874 12.8552C15.7954 12.9472 15.3034 12.9946 14.8324 12.9946C14.2773 12.9946 13.7616 12.9367 13.2907 12.8631C13.217 12.8762 13.1381 12.8867 13.0697 12.8999C12.6908 12.9683 12.3619 13.1998 12.1672 13.5366C11.9752 13.8707 11.9383 14.2706 12.0699 14.6337C12.0988 14.7153 12.1357 14.81 12.1725 14.8994C12.7276 15.5835 13.3222 16.4754 13.6985 17.5067C14.1221 18.004 14.6219 18.4644 15.2271 18.8143C16.2979 19.4326 17.495 19.6299 18.5895 19.6299C19.2577 19.6299 19.8865 19.5563 20.4259 19.4589C20.8048 19.3905 21.1336 19.159 21.3283 18.8222C21.5204 18.4881 21.5572 18.0882 21.4257 17.7225Z"
          fill="currentColor"/>
    <path d="M13.698 17.5079C13.3218 16.4739 12.7272 15.5846 12.1721 14.9006C12.4562 15.632 12.9429 16.6239 13.698 17.5079Z"
          fill="currentColor"/>
    <path d="M20.7164 18.4706C20.6269 18.6258 20.4743 18.7337 20.3007 18.7652C19.2325 18.9573 17.2014 19.1388 15.578 18.2022C13.9547 17.2656 13.097 15.416 12.7313 14.3952C12.6708 14.2268 12.6892 14.0426 12.7787 13.8874C12.8681 13.7322 13.0207 13.6243 13.1944 13.5927C14.2599 13.4007 16.291 13.2165 17.917 14.1557C19.5377 15.0924 20.3954 16.942 20.7637 17.9628C20.8216 18.1285 20.8058 18.3153 20.7164 18.4706ZM18.0933 13.8505C16.4042 12.8745 14.3467 13.0271 13.1312 13.2454C12.5498 13.3507 12.1999 13.9584 12.3998 14.5136C12.8181 15.6738 13.7153 17.5339 15.4018 18.5074C17.0909 19.4835 19.1483 19.3309 20.3612 19.1125C20.9452 19.0073 21.2952 18.3995 21.0952 17.8418C20.6769 16.6815 19.7797 14.824 18.0933 13.8505Z"
          fill="currentColor"/>
    <path d="M12.3247 11.2072C12.7431 10.0469 13.6402 8.18947 15.3267 7.21338C17.0158 6.23991 19.0732 6.39251 20.2861 6.61088C20.8702 6.71612 21.2201 7.32125 21.0202 7.87902C20.6018 9.03928 19.7047 10.8968 18.0156 11.8729C16.3291 12.8463 14.2717 12.6937 13.0562 12.4753C12.4747 12.3701 12.1248 11.765 12.3247 11.2072ZM11.9932 11.0888C11.8617 11.4519 11.8985 11.8518 12.0932 12.1859C12.2853 12.5227 12.6142 12.7542 12.9957 12.8226C13.0851 12.8384 13.193 12.8489 13.2903 12.8647C14.048 12.7437 15.1425 12.6569 16.2844 12.8542C16.9342 12.7358 17.5841 12.5306 18.1918 12.178C20.0099 11.1283 20.9517 9.10769 21.3517 7.99741C21.4806 7.63434 21.4464 7.23443 21.2517 6.90029C21.0596 6.56353 20.7307 6.332 20.3493 6.26359C19.189 6.05312 16.9684 5.85842 15.1504 6.90818C14.5164 7.27652 13.9928 7.76325 13.5561 8.28945C13.1693 9.37342 12.5563 10.2837 12.0695 10.8915C12.0432 10.9573 12.0143 11.0283 11.9932 11.0888Z"
          fill="currentColor"/>
    <path d="M13.556 8.28888C12.8141 9.18078 12.3431 10.1753 12.0695 10.8909C12.5563 10.2832 13.1693 9.37548 13.556 8.28888Z"
          fill="currentColor"/>
    <path d="M13.2909 12.8641C13.7618 12.9377 14.2775 12.993 14.8327 12.993C15.3036 12.993 15.7956 12.9456 16.285 12.8562C15.1457 12.6589 14.0512 12.7431 13.2909 12.8641Z"
          fill="currentColor"/>
    <path d="M12.6562 11.3259C13.0219 10.3051 13.8796 8.45549 15.5029 7.51886C16.4659 6.96372 17.5682 6.8006 18.5312 6.8006C19.1942 6.8006 19.7888 6.87953 20.2229 6.95583C20.3992 6.9874 20.5518 7.09527 20.6412 7.2505C20.7307 7.40836 20.7465 7.59252 20.6859 7.76091C20.3202 8.7791 19.4625 10.6287 17.8392 11.5653C16.2159 12.5046 14.1874 12.3204 13.1192 12.1283C12.943 12.0968 12.793 11.9889 12.7035 11.8337C12.6141 11.6784 12.5957 11.4943 12.6562 11.3259ZM13.0561 12.4756C14.2716 12.694 16.329 12.8466 18.0155 11.8731C19.7046 10.897 20.6018 9.03956 21.0201 7.8793C21.22 7.32153 20.8675 6.71378 20.286 6.61117C19.0732 6.39016 17.0157 6.2402 15.3266 7.21366C13.6402 8.18713 12.7404 10.0472 12.3247 11.2075C12.1247 11.7626 12.4746 12.3704 13.0561 12.4756Z"
          fill="currentColor"/>
</svg>
